<?xml version="1.0" standalone="no"?>
<!DOCTYPE svg PUBLIC "-//W3C//DTD SVG 20010904//EN"
 "http://www.w3.org/TR/2001/REC-SVG-20010904/DTD/svg10.dtd">
<svg version="1.0" xmlns="http://www.w3.org/2000/svg"
 width="1043.000000pt" height="1043.000000pt" viewBox="0 0 1043.000000 1043.000000"
 preserveAspectRatio="xMidYMid meet">
<metadata>
Created by potrace 1.14, written by Peter Selinger 2001-2017
</metadata>
<g transform="translate(0.000000,1043.000000) scale(0.100000,-0.100000)"
fill="#000000" stroke="none">
<path d="M264 6166 c-2 -6 -3 -337 -2 -736 l3 -725 98 -3 97 -3 0 256 c0 197
3 255 13 256 6 1 77 2 157 4 168 4 222 19 318 89 94 70 171 180 190 273 9 49
9 198 -1 242 -15 65 -77 168 -135 223 -66 61 -134 100 -212 121 -70 18 -519
21 -526 3z m519 -215 c59 -29 112 -81 139 -139 30 -64 29 -169 -2 -234 -35
-76 -117 -143 -190 -155 -22 -4 -204 -6 -252 -4 -17 1 -18 21 -18 275 0 210 3
275 13 279 6 2 69 3 139 2 106 -2 134 -6 171 -24z"/>
<path d="M7423 6173 c-10 -4 -13 -48 -13 -178 l0 -173 -71 2 c-38 1 -75 -1
-80 -5 -8 -5 -13 -76 -10 -171 l1 -28 80 0 80 0 2 -457 3 -458 80 -3 c138 -5
122 -63 122 460 l0 453 79 5 79 5 3 98 c3 110 14 99 -100 100 -46 0 -58 4 -59
16 0 9 -1 87 -1 174 -1 86 -4 158 -7 158 -16 4 -178 5 -188 2z"/>
<path d="M8834 6164 c-65 -32 -79 -114 -28 -164 55 -54 140 -37 170 35 36 86
-57 171 -142 129z"/>
<path d="M2539 5820 c-8 -6 87 -266 145 -395 24 -53 256 -640 256 -647 0 -4 9
-22 19 -40 l18 -33 98 0 98 0 95 238 c83 208 112 266 112 226 0 -5 11 -35 25
-65 14 -30 25 -60 25 -68 0 -7 3 -16 7 -20 4 -4 35 -76 68 -159 l61 -152 97
-3 98 -3 20 48 c11 26 24 57 29 68 5 11 52 130 105 265 113 288 192 487 205
515 50 115 85 221 74 225 -11 4 -160 5 -200 1 -9 -1 -99 -210 -111 -256 -1 -5
-24 -64 -51 -130 -61 -148 -64 -158 -67 -170 -2 -5 -14 -35 -27 -65 -14 -30
-33 -77 -43 -105 -10 -27 -21 -54 -26 -59 -10 -11 0 -33 -144 334 -64 162
-120 304 -125 315 -5 11 -20 47 -34 80 l-24 60 -106 0 c-58 -1 -107 -3 -110
-6 -4 -4 82 -235 118 -314 13 -29 10 -38 -36 -150 -27 -66 -52 -127 -55 -135
-69 -183 -91 -211 -108 -142 -3 14 -52 139 -107 277 -55 137 -118 297 -141
355 -23 58 -43 107 -45 110 -5 7 -201 7 -213 0z"/>
<path d="M4703 5814 c-226 -39 -402 -217 -453 -459 -13 -61 -13 -55 -6 -141
18 -208 138 -383 322 -470 115 -54 191 -65 321 -49 107 13 252 90 323 171 37
42 80 100 80 107 0 7 -55 44 -126 83 l-43 24 -33 -44 c-38 -50 -116 -108 -171
-125 -55 -18 -166 -21 -204 -5 -18 7 -33 11 -33 8 0 -14 -99 53 -134 90 -38
41 -93 142 -82 153 3 3 203 5 445 5 l440 -2 7 22 c16 51 1 196 -27 264 -7 16
-13 31 -14 34 -41 117 -176 252 -305 303 -107 42 -192 51 -307 31z m193 -190
c63 -19 115 -48 158 -90 41 -40 86 -124 86 -161 l0 -23 -341 0 -341 0 7 28 c4
15 8 34 10 43 15 76 145 188 236 204 18 3 36 8 38 11 9 9 104 1 147 -12z"/>
<path d="M5895 5822 c-52 -10 -141 -46 -164 -65 -65 -57 -108 -106 -128 -147
-19 -41 -26 -57 -41 -100 -3 -8 -6 -193 -6 -410 l-1 -395 95 0 95 0 5 385 c4
336 7 389 22 415 23 41 63 82 96 98 29 15 125 16 156 2 18 -8 50 5 146 61 66
38 68 42 40 65 -37 29 -130 75 -169 84 -41 9 -118 12 -146 7z"/>
<path d="M6588 5814 c-186 -34 -291 -162 -282 -344 4 -79 5 -86 28 -130 30
-57 65 -99 104 -123 41 -26 119 -55 142 -55 61 2 217 -15 244 -26 42 -17 45
-23 51 -83 7 -61 -17 -110 -69 -136 -54 -28 -179 -29 -226 -1 -29 17 -69 69
-83 107 -1 5 -36 9 -77 9 -129 0 -122 3 -116 -36 19 -119 89 -212 200 -266
125 -61 311 -55 411 13 139 95 190 217 160 385 -8 47 -48 113 -90 150 -58 51
-133 73 -280 82 -130 7 -153 15 -184 59 -47 65 -14 158 65 185 58 19 168 16
212 -8 35 -18 72 -69 72 -98 0 -11 8 -18 20 -19 66 -4 167 -4 176 -1 17 5 -11
116 -41 167 -87 145 -241 205 -437 169z"/>
<path d="M8300 5818 c-163 -28 -291 -159 -324 -333 -9 -47 -15 -683 -7 -773 1
-10 25 -12 98 -10 l98 3 0 375 c1 346 2 378 20 415 49 104 147 145 260 110 14
-4 49 10 114 47 l93 53 -33 27 c-87 73 -208 106 -319 86z"/>
<path d="M8799 5819 c-9 -5 -13 -457 -10 -1026 l1 -93 89 0 c51 0 93 4 96 10
8 13 9 1100 1 1107 -7 8 -166 9 -177 2z"/>
<path d="M9694 5818 c-87 -13 -203 -74 -261 -137 -25 -26 -25 -26 -28 34 -1
22 -3 46 -4 53 -1 9 -28 12 -101 12 -55 0 -100 -3 -101 -7 -5 -40 -2 -1518 2
-1531 6 -15 20 -17 99 -16 54 0 94 5 98 11 4 6 7 142 7 302 0 160 1 291 3 291
2 0 25 -19 51 -41 75 -65 148 -92 262 -97 112 -5 182 8 267 48 299 141 418
497 264 785 -109 204 -341 325 -558 293z m171 -215 c65 -19 144 -79 184 -140
116 -175 59 -422 -121 -526 -52 -31 -146 -49 -212 -41 -146 17 -279 146 -304
296 -25 144 47 305 169 380 71 44 194 57 284 31z"/>
<path d="M1780 5810 c-66 -16 -75 -18 -115 -35 -91 -39 -177 -110 -235 -195
-74 -108 -104 -209 -102 -335 2 -97 0 -89 44 -205 80 -209 302 -354 528 -345
98 4 105 6 182 35 160 60 286 194 339 360 24 75 32 195 17 260 -5 25 -11 52
-13 60 -14 66 -77 177 -138 241 -66 69 -177 132 -277 156 -35 9 -198 11 -230
3z"/>
</g>
</svg>
