<?xml version="1.0" standalone="no"?>
<!DOCTYPE svg PUBLIC "-//W3C//DTD SVG 20010904//EN"
 "http://www.w3.org/TR/2001/REC-SVG-20010904/DTD/svg10.dtd">
<svg version="1.0" xmlns="http://www.w3.org/2000/svg"
 width="510.000000pt" height="510.000000pt" viewBox="0 0 510.000000 510.000000"
 preserveAspectRatio="xMidYMid meet">
<metadata>
Created by potrace 1.14, written by Peter Selinger 2001-2017
</metadata>
<g transform="translate(0.000000,510.000000) scale(0.100000,-0.100000)"
fill="#000000" stroke="none">
<path d="M2396 5013 c-1 -2 -31 -5 -67 -8 -117 -9 -204 -20 -204 -25 0 -1 -13
-3 -30 -5 -16 -1 -31 -4 -32 -5 -3 -3 -5 -3 -53 -13 -19 -4 -46 -10 -60 -13
-14 -3 -31 -6 -37 -6 -7 -1 -13 -4 -13 -7 0 -4 -12 -8 -26 -9 -14 -1 -31 -5
-37 -9 -13 -8 -23 -11 -52 -15 -11 -2 -22 -5 -25 -8 -5 -5 -97 -40 -115 -43
-5 -1 -15 -7 -22 -13 -6 -6 -32 -18 -57 -25 -26 -7 -46 -17 -46 -22 0 -4 -4
-6 -9 -2 -5 3 -17 -2 -25 -11 -9 -8 -16 -13 -16 -11 0 3 -28 -10 -62 -29 -35
-18 -79 -41 -98 -50 -19 -9 -37 -19 -40 -23 -3 -4 -21 -16 -40 -27 -19 -10
-39 -22 -45 -27 -5 -4 -50 -37 -100 -73 -195 -143 -409 -360 -526 -531 -18
-26 -36 -49 -41 -51 -4 -2 -8 -10 -8 -18 0 -8 -4 -14 -10 -14 -5 0 -10 -4 -10
-10 0 -5 -19 -40 -43 -77 -59 -93 -146 -269 -190 -383 -92 -238 -132 -411
-162 -695 -13 -117 -7 -408 10 -505 3 -14 7 -43 10 -65 32 -232 133 -536 249
-745 20 -36 39 -72 43 -80 13 -29 108 -175 115 -178 5 -2 8 -8 8 -14 0 -31
264 -328 401 -450 43 -39 121 -102 143 -117 12 -8 44 -31 72 -53 28 -21 56
-38 62 -38 7 0 12 -4 12 -10 0 -5 7 -10 15 -10 8 0 15 -4 15 -9 0 -5 8 -11 17
-14 18 -6 73 -37 83 -47 26 -26 362 -175 440 -195 3 -1 12 -4 20 -8 17 -7 100
-31 115 -33 6 0 17 -4 25 -7 8 -4 26 -9 40 -11 14 -3 25 -5 25 -6 0 -1 44 -9
85 -15 14 -1 25 -4 25 -5 0 -2 9 -4 20 -5 11 -2 41 -6 66 -9 26 -3 55 -9 65
-13 12 -5 15 -3 9 6 -6 10 -3 11 11 3 45 -22 376 -20 559 4 17 2 46 6 65 8 19
2 35 5 35 6 0 2 19 6 65 14 19 3 71 15 115 26 44 12 89 23 100 26 11 2 52 16
90 30 39 14 76 26 83 27 6 0 12 4 12 9 0 4 3 7 8 6 12 -2 137 48 161 66 7 6
20 11 28 12 8 1 26 11 41 20 15 10 30 19 33 19 25 1 289 172 289 188 0 5 3 7
6 4 4 -4 19 4 34 16 15 12 45 36 66 52 214 170 422 408 563 647 49 83 161 309
161 325 0 4 7 21 15 36 21 40 91 260 109 342 24 108 45 239 53 329 13 150 7
450 -12 546 -2 14 -7 41 -9 60 -28 214 -124 507 -248 755 -79 156 -217 367
-302 458 -14 15 -23 27 -21 27 10 0 -212 215 -281 270 -43 36 -80 68 -82 73
-2 4 -10 7 -18 7 -8 0 -14 4 -14 8 0 5 -16 17 -35 28 -19 10 -35 22 -35 25 0
4 -14 12 -30 18 -17 5 -33 17 -36 25 -3 8 -11 13 -19 10 -7 -3 -15 2 -19 11
-3 9 -10 14 -15 11 -5 -3 -14 1 -21 9 -7 8 -19 15 -26 15 -8 0 -14 5 -14 10 0
6 -6 10 -12 10 -15 0 -121 52 -129 63 -3 5 -8 8 -10 7 -4 -1 -36 10 -86 32
-16 6 -30 12 -33 13 -3 1 -22 9 -42 18 -21 9 -63 24 -93 33 -30 10 -55 21 -55
25 0 4 -9 5 -20 2 -11 -3 -20 -1 -20 4 0 5 -6 10 -12 10 -24 1 -81 14 -92 21
-6 3 -15 7 -21 8 -5 1 -26 4 -46 8 -20 3 -42 8 -50 10 -31 11 -185 34 -284 43
-69 5 -344 10 -349 6z"/>
</g>
</svg>
