<svg width="100%" height="100%" viewBox="0 0 409 410" fill="none" xmlns="http://www.w3.org/2000/svg">
<path fill-rule="evenodd" clip-rule="evenodd" d="M204.107 409.012C316.5 409.012 408.191 317.321 408.191 204.928C408.191 92.5354 316.487 0.857666 204.107 0.857666C91.7275 0.857666 0.0236816 92.5485 0.0236816 204.928C0.0236816 317.308 91.7145 409.012 204.107 409.012Z" fill="#7A85FD"/>
<path fill-rule="evenodd" clip-rule="evenodd" d="M169.654 405.366C73.8413 388.591 1 304.988 1 204.348C1 103.709 69.6279 25.0366 161.319 5C257.184 21.7754 330.025 105.379 330.025 206.018C330.025 306.658 261.345 385.33 169.654 405.379V405.366Z" fill="#8E93CD"/>
<path d="M95.6804 154.798C96.6326 160.276 100.598 151.536 95.6804 154.798V154.798ZM393.359 128.369C401.447 148.471 406.469 170.125 407.826 192.731C406.874 192.731 405.869 192.575 405.517 192.731C404.565 193.188 403.651 194.597 403.156 195.288C402.96 195.588 402.608 198.001 402.556 198.106C402.451 198.406 401.303 197.91 401.147 198.562C400.599 201.68 403.404 201.928 403.456 204.145C403.508 206.663 400.586 208.372 398.029 208.111C398.434 206.35 399.49 200.623 395.864 202.137C395.707 200.232 397.52 199.828 395.212 198.771C394.103 198.314 391.442 199.671 390.437 200.284C391.846 196.723 392.798 197.114 389.433 198.419C389.276 198.471 386.224 199.828 386.315 199.671C384.658 202.332 388.428 200.323 388.024 203.193C389.328 203.193 389.081 201.641 390.085 201.993C392.394 202.841 392.394 202.802 391.598 203.898C390.75 205.202 388.233 204.406 388.18 206.807C388.128 208.059 390.594 210.276 390.946 212.037C391.194 213.498 390.398 213.342 390.542 214.151C390.737 215.664 391.898 214.307 391.546 216.46C390.998 219.473 386.928 223.086 384.711 224.743C383.106 225.943 382.506 226.347 380.589 226.947C379.284 227.352 376.819 227.456 375.71 228.461C375.762 228.408 375.201 235.192 372.54 232.883C371.483 231.931 374.249 229.922 373.844 228.056C367.466 228.056 368.17 232.478 370.935 236.092C372.801 238.453 374.197 241.01 371.94 244.036C370.74 245.693 368.418 246.241 366.866 248.406C366.109 247.101 366.813 246.345 366.318 245.497C366.122 245.249 364.961 244.949 364.661 244.493C363.2 242.732 363.357 242.784 361.791 241.936C359.926 240.931 361.491 239.77 359.626 241.336C358.465 242.288 359.117 245.353 359.274 246.11C359.73 249.176 361.83 249.071 363.591 251.237C364.844 252.75 364.844 256.468 366.057 258.516C362.496 260.224 360.826 253.598 360.03 251.732C359.378 250.18 357.513 249.071 357.069 247.858C356.26 245.849 358.073 244.597 358.073 243.436C358.126 241.179 356.717 235.805 354.656 235.244C354.46 235.192 352.999 237.357 351.695 236.353C349.79 234.839 352.803 232.635 350.142 232.635C350.142 231.63 348.186 227.156 347.325 226.608C347.272 226.556 342.759 227.508 341.742 228.069C339.08 229.53 335.715 233.744 332.845 236.457C331.384 237.918 331.541 235.948 330.732 237.97C330.536 238.57 330.784 239.927 330.732 240.631C330.575 242.04 330.575 243.449 329.975 244.649C329.075 246.514 327.458 248.067 325.905 247.206C324.392 246.306 323.296 241.231 322.696 239.718C321.796 237.409 320.883 235.453 320.492 232.987C320.244 231.735 320.948 230.274 320.087 229.165C318.379 226.752 319.24 229.413 317.622 228.917C316.67 228.617 311.843 226.4 316.07 226.4C313.656 225.943 313.513 224.795 311.895 223.882C308.986 222.225 307.93 222.525 304.264 222.421C302.66 222.369 299.294 222.069 297.938 221.417C297.233 221.064 297.09 219.864 296.529 219.708C295.824 219.551 294.624 219.903 294.116 219.708C291.05 218.755 290.202 217.894 287.58 216.146C285.519 214.685 283.81 213.538 284.41 217.047C284.567 218.051 286.615 220.308 287.28 220.816C287.476 220.921 291.807 222.121 291.898 222.473C286.276 223.478 291.05 223.373 294.103 223.634C294.207 222.03 294.455 221.925 295.303 220.869C296.059 221.469 296.307 223.478 296.503 224.391C298.512 222.434 297.103 223.686 298.512 224.847C299.268 225.5 301.029 226.66 301.173 227.717C299.62 228.369 299.568 228.474 299.568 230.587C298.564 230.183 297.051 232.296 296.307 233.144C294.703 234.957 293.346 234.5 291.037 235.557C289.224 236.405 288.128 237.318 285.91 238.218C283.954 239.066 281.593 240.931 279.636 240.931C275.214 240.879 277.327 238.766 275.723 235.257C274.562 232.7 271.809 230.939 270.453 228.669C268.339 225.108 267.544 220.477 264.269 217.06C262.104 219.264 260.8 213.538 258.843 212.638C260.095 211.985 261.308 213.342 262.613 212.794C263.722 212.285 265.274 210.276 265.678 209.024C266.931 205.463 266.63 204.302 263.317 203.598C263.265 204.106 263.265 204.498 263.317 204.954C261.504 205.359 261.008 204.002 259.899 204.054C260.004 204.054 257.134 204.602 258.243 204.759C257.186 204.602 256.077 204.863 254.773 203.702C254.773 203.898 254.877 205.659 254.264 205.659C253.755 205.659 251.851 192.392 248.381 197.519C248.629 197.519 248.838 197.623 248.89 197.871C247.885 198.328 247.377 198.027 246.477 197.519C246.176 198.119 248.081 200.936 248.994 200.936C249.098 200.636 249.098 200.336 248.994 200.036C249.542 200.036 249.894 200.441 250.194 200.936C248.433 201.184 245.316 206.259 244.363 201.536C243.515 202.593 242.811 201.941 242.302 200.636C242.902 200.532 243.059 200.689 243.711 200.832C243.111 199.723 242.354 196.958 241.807 195.953C240.906 194.297 238.793 193.488 237.189 192.288C234.828 190.579 231.71 186.313 231.358 191.127C232.467 191.023 234.828 192.836 234.619 194.297C236.876 194.597 239.537 196.71 240.502 198.562C239.993 198.562 238.389 198.21 237.737 198.014C237.684 198.314 237.632 198.562 237.632 198.823H238.989C237.932 201.38 234.019 205.906 231.553 201.589C240.75 201.589 234.215 197.623 230.549 194.753C229.297 193.749 227.836 190.931 226.323 190.683C225.214 190.527 223.205 192.94 222.8 192.992C221.744 193.188 219.983 191.831 218.978 192.444C217.817 193.149 218.926 194.31 218.274 194.805C217.765 195.262 214.661 196.162 213.956 197.01C213.408 197.662 213.2 199.215 212.952 199.567C212.9 199.619 213.852 200.376 213.552 200.819C213.004 201.576 212.652 200.715 211.947 201.367C210.238 202.971 207.473 203.885 205.321 204.68C205.673 204.628 205.725 204.785 205.477 205.137C204.173 203.532 203.52 204.38 202.164 203.532C200.051 202.176 200.859 203.637 200.259 201.223C199.555 198.562 200.768 195.301 199.959 192.536C204.225 190.722 214.778 196.058 210.46 187.409C209.651 185.805 208.804 185.4 208.047 184.344C207.499 183.587 205.49 183.991 207.095 182.739C208.399 181.735 212.821 184.396 210.617 180.574C211.569 180.469 212.43 181.774 213.878 181.33C214.334 181.226 215.482 178.461 215.639 178.369C217.1 177.26 220.909 177.521 218.952 175.004C220.465 175.004 222.827 174.247 224.183 173.451C226.844 171.899 225.84 173.804 225.996 170.334C226.049 169.029 225.096 167.516 226.453 166.159C228.357 164.151 229.01 164.607 228.657 167.112C228.958 167.216 229.258 167.216 229.558 167.112C229.401 167.516 229.101 168.312 229.101 168.716C229.453 168.873 231.306 168.207 231.866 167.96C232.271 172.682 228.449 168.912 228.201 171.521C228.71 171.977 229.714 172.33 230.666 172.369C230.914 169.955 234.736 172.173 235.584 172.121C238.193 171.873 239.498 169.303 241.859 171.664C240.554 169.551 242.563 170.412 244.168 170.412C244.22 169.408 244.063 165.442 245.929 164.738C247.442 164.19 247.285 168.103 249.894 164.738C248.994 164.137 248.89 163.577 247.833 163.029C247.285 162.781 245.668 165.338 244.82 163.133C245.524 162.937 246.02 162.676 246.724 162.676C246.424 162.52 246.176 162.376 245.824 162.22C245.876 162.168 249.19 161.059 250.142 160.915C252.555 160.615 255.412 161.516 257.473 159.454C253.808 157.393 248.381 161.763 245.316 158.15C240.893 153.023 250.494 151.367 250.038 148.406C249.842 147.049 247.168 145.849 246.02 146.54C244.507 147.493 244.507 149.906 243.855 150.767C242.85 152.019 240.946 152.123 239.889 153.323C237.776 155.789 239.485 157.641 239.485 159.702C242.302 159.702 240.437 160.759 239.941 162.063C239.785 162.416 237.828 164.933 237.332 165.677C237.841 166.029 238.089 166.029 238.885 165.977C238.989 166.225 238.989 166.433 238.885 166.733C237.476 167.086 236.576 167.633 234.919 168.247C233.967 168.599 234.919 170.203 232.714 169.303C231.814 169.003 233.014 168.247 232.61 167.79C231.306 166.277 230.197 161.007 228.697 160.759C226.44 163.629 225.227 163.224 221.809 163.224C221.705 162.416 222.161 162.272 222.213 161.411C219.096 161.163 223.727 158.998 220.309 159.102C221.157 156.089 221.666 153.676 225.84 152.828C225.54 152.019 225.683 152.28 225.683 151.667C226.74 151.915 230.21 150.415 230.406 148.901H229.153C229.805 148.249 230.966 147.545 231.71 147.44C232.114 144.675 235.48 140.853 237.737 140.357C236.028 139.509 233.667 140.957 232.114 141.466C232.871 140.461 233.719 139.809 235.128 139.809C235.128 139.3 235.18 139.561 234.932 139.053C235.884 138.596 236.289 137.892 236.889 137.644C237.397 139.248 237.045 138.805 238.598 139.405C239.25 137.448 237.489 138.753 239.354 136.887C239.654 139.092 241.063 136.731 240.659 135.231C241.715 135.126 243.32 136.131 243.32 137.187C243.92 136.731 243.776 136.483 243.776 135.583C244.781 135.935 245.981 135.583 246.894 135.987C245.237 135.035 244.937 133.274 248.146 133.626C246.633 135.231 250.807 133.026 251.407 132.922V133.926C251.16 133.926 250.599 133.822 250.351 133.926C250.351 136.091 251.107 135.387 251.355 133.678C252.112 134.383 252.464 134.187 252.868 135.139C252.712 134.487 252.868 134.03 252.868 133.274C253.325 133.117 254.473 133.117 254.982 133.274C254.877 133.626 254.682 134.435 254.473 134.787C256.025 134.787 255.125 133.274 257.382 134.487C258.23 134.944 259.143 135.739 257.382 135.739C258.438 136.692 262.965 135.935 261.856 138.257C262.808 138.857 266.083 138.257 268.287 139.105C269.644 139.614 273.309 140.97 273.662 142.47C275.266 148.706 261.856 143.423 260.604 143.175C262.013 145.04 263.917 146.945 264.83 148.445C265.887 150.206 264.674 149.906 267.035 151.054C267.231 151.158 269.592 151.51 269.592 150.754C269.592 149.749 264.869 149.554 268.039 147.845C269.344 149.501 271.209 148.693 272.761 149.554C272.814 148.901 272.005 147.597 271.705 147.14C272.761 147.036 274.314 145.327 274.875 145.184C275.579 145.079 278.136 145.64 277.888 145.784C278.84 145.184 278.136 140.305 277.184 139.353C279.388 139.353 283.915 141.962 280.053 141.818C279.701 146.54 284.776 141.87 285.18 141.622C287.541 140.018 290.254 139.966 292.563 138.609C290.959 143.436 299.803 136.091 299.803 140.37C305.23 138.205 297.142 134.996 299.96 134.539C300.56 134.435 304.63 136.548 305.738 136.9C307.904 137.657 309.613 138.453 311.869 139.066C311.921 139.066 313.93 141.831 314.478 139.822C314.726 138.661 313.122 138.713 312.769 137.957C312.221 136.848 311.465 137.057 311.113 136.248C311.517 137.096 311.517 132.374 311.008 133.783C311.061 133.535 313.97 128.865 314.217 128.656C316.031 127.299 320.244 127.952 319.696 130.521H318.744C318.548 132.478 319.2 139.47 320.948 139.314C320.948 140.918 320.14 142.027 319.044 143.031C317.844 144.088 315.431 143.879 314.778 144.844C317.739 145.04 317.687 145.601 320.009 144.297C320.857 143.84 321.522 143.488 322.122 142.483C322.422 141.975 322.279 139.874 322.279 139.874C326.597 136.352 325.944 144.297 329.167 142.183C328.866 142.131 326.91 141.831 326.91 141.283C326.91 139.679 327.066 138.374 324.601 137.37C322.592 136.613 323.049 139.027 321.392 136.365C321.288 136.17 320.844 131.487 320.844 131.487C321.144 129.83 322.801 130.939 322.801 128.121C323.049 128.173 323.257 128.121 323.453 127.965C323.91 128.865 323.453 131.33 323.805 131.787C324.966 133.196 327.366 132.296 328.332 133.691C328.58 131.878 321.953 130.574 327.627 130.926C327.627 129.921 326.727 129.974 326.023 129.621C327.927 129.217 329.232 129.269 331.149 129.974C331.606 130.13 332.506 131.487 333.21 131.435C335.728 131.239 331.306 128.617 330.654 127.065C333.119 124.86 337.685 127.169 340.15 125.356C342.407 123.751 338.793 125.004 340.046 123.151C340.346 122.695 343.007 121.742 343.516 121.547C345.068 120.999 346.125 120.842 347.39 120.594C348.642 120.242 351.512 118.533 351.76 118.481C353.117 118.325 354.825 119.433 355.725 119.329C358.282 119.081 358.491 117.02 361.556 117.725C361.4 117.216 361.504 117.372 361.152 116.877C363.917 115.468 364.061 113.968 368.483 114.32C368.287 114.516 367.374 115.624 367.179 115.977C368.287 115.977 369.383 116.329 370.544 116.225C370.544 116.929 370.244 117.033 369.84 117.477C371.849 116.72 380.536 116.368 379.741 120.947C379.545 122.003 371.001 127.182 369.083 127.378C370.896 127.378 374.262 127.534 373.91 125.564C376.166 125.917 377.08 123.256 378.788 123.699C380.302 124.103 377.08 125.656 376.884 125.656C377.536 126.308 378.697 125.604 379.401 125.356V126.556C381.41 126.556 384.724 125.656 386.537 126.151C387.541 126.399 387.998 127.404 388.741 127.756C390.502 128.46 391.703 128.408 393.411 128.356L393.359 128.369ZM408.178 205.946C408.178 206.598 408.178 207.25 408.126 207.85C406.769 208.098 405.517 208.502 405.217 209.363C407.734 209.559 405.217 211.829 405.217 213.381C402.96 212.781 404.617 212.077 404.617 210.616C404.265 210.616 403.417 210.668 402.856 210.616C403.208 208.45 405.673 206.65 408.178 205.946ZM408.126 208.359V210.12C407.826 210.224 407.578 210.368 407.278 210.472C406.978 209.115 407.434 208.607 408.126 208.359ZM401.186 258.046C400.938 258.998 400.677 259.95 400.429 260.916C399.882 261.516 399.582 261.92 399.529 260.264C399.425 258.098 400.182 257.902 401.29 256.389C401.134 256.585 401.29 256.546 401.29 256.389C401.29 256.989 401.134 257.446 400.938 258.046H401.186ZM399.281 264.633C399.229 264.881 399.177 265.09 399.125 265.286C398.825 265.39 398.473 265.181 398.173 264.386C398.577 264.49 398.929 264.581 399.281 264.633ZM396.568 272.917C396.373 273.517 396.164 274.078 395.968 274.626C395.016 274.926 394.207 274.978 394.207 274.469C394.403 274.169 395.368 273.413 396.568 272.917ZM390.242 288.688C387.724 294.362 384.919 299.893 381.854 305.268C381.697 304.915 381.554 304.511 381.397 304.107C380.797 302.398 377.484 297.728 380.497 299.084C379.088 296.567 379.297 295.067 380.145 292.497C381.097 294.806 381.697 292.04 382.506 291.74C384.411 290.984 387.124 290.736 388.885 289.875C389.394 289.627 389.837 289.17 390.242 288.675V288.688ZM5.04614 159.715C6.80717 152.123 8.9204 144.688 11.4772 137.409C12.7816 137.709 14.1383 137.813 15.9515 137.409C18.5604 136.9 21.6259 135.452 24.1957 135.452C22.839 137.109 20.5823 136.861 19.1735 138.661C20.7258 137.761 24.4435 135.752 25.761 135.452C26.4133 135.348 25.6567 134.448 26.8698 134.604C27.7699 134.709 28.2265 136.418 28.6309 136.418C29.831 136.522 30.3397 138.126 31.0963 135.57C32.1007 138.74 34.6184 136.078 37.2273 136.522C39.2883 136.979 45.2628 138.635 47.0238 140.083C45.9672 140.435 45.615 141.192 45.315 141.335C48.8762 141.688 54.8115 140.174 56.0116 144.649C56.4682 141.779 55.1115 141.635 57.9683 140.422C59.8728 139.614 60.0815 140.37 62.0904 140.827C65.1037 141.531 68.6779 143.031 70.4781 139.718C69.6693 139.418 69.0693 138.609 68.2735 138.257C68.6779 137.8 69.6824 136.744 70.0868 136.3C71.7956 136.6 72.9566 137.657 72.8522 139.366H71.8478C72.6957 140.566 71.3912 140.214 73.0088 140.67C72.9044 142.431 72.5 141.922 74.261 143.083C73.2044 140.122 76.6221 140.97 76.6743 138.361C75.2133 139.666 73.961 139.77 73.3088 138.061C77.4309 138.909 70.1389 134.5 73.661 132.035C77.3787 129.426 77.7309 134.448 78.931 136.209C79.8311 137.566 82.1009 138.27 82.5966 138.57C83.001 138.766 84.0576 138.27 85.2577 139.574C85.3099 139.627 83.901 141.74 85.2577 142.444C88.2188 143.957 88.7797 136.47 89.9277 136.013C88.0623 135.465 83.7967 135.009 82.8966 133.652C83.901 133.704 84.5533 133.196 85.7142 133.496C84.1619 131.239 80.9921 133.143 82.5444 128.878C83.7445 125.76 86.51 125.408 89.432 125.564C86.6665 126.921 86.1186 132.7 89.9799 132.191C88.1145 129.726 87.9188 126.765 91.6365 126.06C94.102 125.604 93.8411 125.356 95.3542 127.521C96.2543 128.773 94.5455 129.53 95.9021 130.234C96.8022 130.691 100.781 128.369 102.842 129.034C105.503 129.882 105.751 132.1 109.625 132.204C109.273 132.4 108.921 132.661 108.568 132.856C110.525 133.404 111.53 133.861 113.695 134.317C113.499 134.617 113.343 134.865 113.147 135.165C114.308 135.413 114.608 136.118 115.508 136.47C114.856 136.77 114.96 136.77 114.452 137.174C115.052 137.331 115.652 137.474 116.213 137.631C110.382 138.831 122.044 142.053 123.244 143.605C124.444 145.066 124.3 143.853 123.4 145.51C123.4 145.458 120.687 147.675 120.843 147.623C118.782 148.223 119.891 147.427 117.282 146.018C115.678 145.171 115.117 143.762 113.721 145.823C115.534 148.236 117.739 149.841 119.604 151.602C119.409 152.202 119.004 153.767 118.756 154.211C116.852 153.05 114.843 152.045 112.834 151.093C113.891 152.75 116.852 153.754 116.8 155.658C114.491 154.406 111.425 154.654 109.469 153.102C107.512 151.497 107.303 149.332 104.199 148.98C103.246 148.875 99.4242 151.589 99.2285 149.084C98.9807 146.527 104.199 147.675 105.66 147.323C103.898 144.714 107.825 144.766 107.721 142.705C107.668 141.153 105.764 139.992 104.707 139.235C102.242 137.37 100.337 135.674 97.5197 134.865C97.924 135.27 98.3676 135.622 98.7719 136.026C96.1108 136.979 93.3976 135.778 90.8799 136.183C92.3409 136.835 97.4153 139.548 93.2932 140.253C95.3542 142.77 93.9454 145.275 90.9321 145.523C90.1233 146.527 91.3365 146.475 89.3798 146.579C90.0842 148.132 98.7198 151.197 94.2976 151.954C93.7497 152.006 92.9932 151.197 92.3409 151.302C91.7931 151.406 89.8233 152.306 89.9799 152.306C88.0232 152.358 87.5144 152.006 86.2099 150.649C87.7623 150.049 90.1755 144.375 86.6665 144.675C89.9277 148.093 81.9965 146.188 80.6399 146.136C82.4531 146.984 84.0054 148.04 86.1186 147.897C85.5186 149.854 84.4098 151.419 82.1009 150.062C81.553 152.528 77.8744 150.662 75.9177 150.519C76.6743 150.767 80.4442 151.328 80.5877 152.28C80.8355 153.689 78.5266 153.989 77.5222 154.993C76.6221 155.893 75.3177 157.954 75.2133 159.259C74.9133 162.376 75.722 161.268 77.2744 163.172C77.7309 163.72 77.8222 165.285 78.4745 165.69C79.3746 166.238 79.6746 165.285 80.7312 165.742C81.8922 166.199 83.4445 166.694 84.8011 167.346C87.8144 168.899 89.9277 169.408 93.3975 170.008C93.0975 172.212 93.8541 178.043 96.8674 177.847C99.9329 177.547 98.6806 171.964 97.324 170.464C102.203 170.621 103.155 164.19 98.9285 162.429C99.385 161.581 99.1763 161.072 99.5285 160.263H100.585C97.3762 155.593 100.389 153.284 104.903 154.484C108.868 155.489 112.991 157.25 111.53 162.376C113.891 161.724 113.591 163.929 115.704 163.485C117.908 162.977 117.908 160.576 119.265 159.063C120.074 160.929 124.796 166.003 123.139 167.007C124.653 169.368 127.105 170.425 129.766 170.882C128.214 172.186 126.153 171.782 125.148 173.543C127.261 173.295 130.823 171.377 131.827 174.091C132.832 176.752 129.518 177.104 127.405 177.965C125.148 178.917 125.396 179.217 122.735 179.517C121.026 179.622 118.665 179.008 116.956 179.517C114.399 180.222 112.691 183.991 109.677 183.287C110.277 183.444 110.877 183.639 111.438 183.744C110.434 184.592 109.625 185.609 108.973 186.757C111.334 185.244 117.008 178.917 119.278 182.439C120.126 183.691 116.669 185.452 120.23 187.357C122.944 188.818 123.544 187.005 125.761 186C124.913 188.466 121.796 190.566 119.082 190.879C118.978 190.879 115.717 192.94 116.878 190.579C117.282 189.77 120.048 188.714 120.491 188.818C117.178 188.009 108.281 191.179 110.59 195.653C108.986 196.11 106.52 196.253 105.516 197.114C104.759 197.871 103.703 200.728 103.207 201.784C101.85 200.428 102.503 201.484 101.198 201.132C101.707 203.298 102.855 204.198 102.046 205.959C101.146 208.02 97.9762 208.424 96.463 210.185C94.1541 212.846 97.2196 222.447 95.4586 222.591C93.9976 222.747 91.7931 215.507 90.4364 214.555C90.9843 214.959 86.5621 214.099 86.7709 214.099C84.9055 213.994 81.9443 213.59 82.7009 216.212C79.5311 217.216 75.0698 213.146 72.2 217.321C70.1389 220.386 69.9954 228.722 73.4523 231.787C75.0046 233.144 78.2266 234.148 80.2355 232.596C82.4009 230.835 80.6921 228.422 84.2011 228.174C88.1145 227.926 85.4012 234.2 83.601 236.157C85.6621 237.057 89.8755 235.205 91.5452 237.566C93.4497 240.383 89.432 243.24 93.2019 245.758C94.7542 246.814 100.442 245.21 100.089 247.767C99.9329 249.019 95.6673 245.51 96.3195 249.371C94.0628 248.419 90.4364 247.258 88.8319 245.81C87.7231 244.753 86.7187 241.897 84.6055 240.436C84.4489 240.631 80.5355 239.979 79.3354 239.236C78.1353 238.531 77.47 236.927 75.9699 236.47C74.6654 236.118 73.8567 236.979 73.1523 236.874C70.7912 236.522 56.4681 231.2 60.0946 228.735C57.5769 225.917 55.3724 222.408 52.9591 219.786C51.0546 217.725 48.1326 211.842 45.5237 212.155C45.7715 215.625 55.0202 224.065 52.6591 226.478C52.4634 225.369 49.9458 222.408 49.4501 221.86C48.6935 221.103 47.1412 220.347 46.5803 219.551C45.628 218.195 46.5281 217.894 46.1237 217.242C44.9236 215.233 43.8148 212.716 42.5625 210.759C40.9581 208.294 38.297 208.202 36.5359 206.285C33.5226 203.024 31.2659 196.84 31.305 192.418C31.305 190.057 32.8573 187.344 31.6572 184.474C30.4962 181.709 27.783 180.952 25.9828 178.747C29.8571 178.291 32.2573 182.165 34.5271 184.931C34.8271 182.113 32.4138 180.052 30.4049 178.852C27.5873 177.195 26.8438 176.947 24.874 174.286C23.713 172.773 22.9695 170.921 21.7042 168.964C21.5085 168.612 19.891 167.907 19.6953 167.66C19.0952 167.059 18.8474 166.303 18.4952 165.546C14.7253 164.894 12.1685 161.476 8.4508 160.276C7.342 159.924 6.24625 159.872 5.13745 159.82L5.04614 159.715ZM95.6804 154.798C96.6326 160.276 100.598 151.536 95.6804 154.798V154.798ZM91.7148 155.098C93.0193 155.098 93.7758 154.341 93.5802 153.284C93.1236 153.48 89.4581 155.098 91.7148 155.098ZM99.659 128.369C100.716 127.86 101.316 127.26 102.568 127.117C100.703 125.408 98.198 125.708 95.8369 125.76C95.8891 128.069 97.3892 128.969 99.659 128.369ZM109.155 234.174C111.817 233.574 115.691 234.018 118.352 233.118C117.152 231.604 113.525 232.113 111.269 231.813C109.86 231.617 106.951 229.948 106.703 232.218C106.547 233.626 107.864 234.422 109.169 234.174C108.973 234.226 109.469 234.122 109.169 234.174H109.155ZM101.968 233.718C101.368 232.713 100.063 232.413 98.7589 232.609C99.5677 233.718 101.068 234.618 101.968 233.718C101.864 233.522 101.72 233.965 101.968 233.718ZM104.733 230.248C103.572 228.382 98.8111 227.287 96.7892 226.53C95.4325 226.021 92.4714 224.821 90.8147 225.773C89.0015 226.83 89.4581 226.974 91.4148 227.887C92.2627 228.343 92.7714 226.987 93.5802 227.13C94.689 227.326 95.3934 228.291 95.9934 228.487C99.1633 229.648 101.12 230.248 104.733 230.248ZM178.592 147.297C180.001 147.101 180.497 147.101 180.901 148.549C179.844 148.353 178.892 148.353 177.836 148.549L177.992 149.449C181.11 148.94 178.697 150.702 180.301 151.262C180.601 151.367 184.214 151.771 184.423 151.719C187.189 151.615 187.384 151.015 189.745 149.762C191.754 148.653 192.654 150.167 193.267 148.053C193.515 147.245 192.067 147.206 191.754 147.153C192.406 143.331 187.228 146.749 184.671 146.397C184.267 146.345 182.01 146.045 182.414 146.097C181.305 145.992 182.519 144.388 181.358 145.797C178.54 144.844 177.836 147.453 178.592 147.31C178.396 147.362 178.788 147.258 178.592 147.31V147.297ZM131.462 177.9C130.862 178.252 127.34 183.978 127.588 184.435C128.135 185.335 130.001 184.487 131.057 184.787C132.61 185.244 132.962 185.896 134.527 186.653C136.941 183.039 134.684 181.774 131.162 180.678C131.162 180.73 133.327 176.856 131.462 177.913C131.658 177.808 131.305 178.017 131.462 177.913V177.9ZM123.218 181.265C121.704 180.756 121.013 180.104 119.552 180.365C120.961 181.174 121.861 183.235 123.218 181.265C123.022 181.213 123.165 181.369 123.218 181.265ZM166.369 140.122C166.826 139.966 167.269 140.631 167.622 140.67C170.335 141.57 170.335 140.514 172.539 139.666C174.496 138.909 179.427 137.853 180.131 136C177.47 138.061 171.183 133.183 177.875 133.483C177.575 133.483 180.836 136.9 181.592 133.939C181.892 132.83 179.127 130.169 178.279 129.713C178.788 129.308 181.801 131.474 180.888 128.656C180.431 127.299 179.688 127.299 177.927 127.899C178.227 127.352 178.579 127.391 178.775 126.895C178.475 126.791 178.175 126.647 177.927 126.491C178.879 126.491 181.645 127.847 182.949 126.947C185.91 124.991 181.084 125.695 181.084 124.743C181.084 124.495 185.61 124.286 185.91 123.738C184.958 122.838 182.492 121.221 185.454 120.973C185.506 118.507 181.788 118.507 182.245 117.098C182.401 116.551 184.201 116.29 184.71 116.498C186.667 117.255 185.062 117.399 185.91 119.16C186.458 115.99 187.671 115.246 183.849 115.246C184.906 114.046 183.901 114.894 185.662 114.046C184.606 112.389 181.945 113.994 181.945 113.994C179.231 111.789 188.832 105.802 189.732 104.654C188.532 104.758 187.319 104.55 186.119 104.497C188.637 103.989 190.032 104.041 192.198 102.632C192.798 102.28 195.863 102.684 194.507 100.571C194.259 100.219 191.037 100.414 190.737 100.414C188.532 100.714 186.471 101.067 184.606 101.575C183.445 101.928 178.683 104.445 177.979 104.341C180.745 100.871 182.245 100.375 177.222 99.6187C177.222 101.628 175.761 101.432 173.857 101.732C174.157 100.127 175.266 100.78 176.414 100.219C173.596 98.1055 168.378 101.38 165.261 100.871C166.108 98.3533 178.879 98.1577 181.788 97.8576V97.1532C178.879 97.1532 177.562 96.6967 175.305 96.3053C171.887 95.7575 168.574 96.5532 165.261 96.201C167.726 94.5443 172.644 95.2487 176.114 95.2487C175.761 92.5876 160.434 93.6964 158.477 94.2965C156.364 95.0009 158.282 95.7053 155.607 96.0053C154.055 96.1618 152.79 95.2487 151.185 95.1965C149.724 95.1444 146.815 95.3922 145.159 96.0444C145.667 96.9967 146.815 96.5923 146.815 98.0011C146.215 97.4924 143.45 96.3445 144.35 98.0533C144.154 97.6489 149.229 100.61 147.768 100.61C144.559 100.61 142.093 98.0533 138.676 98.0533C138.676 98.7577 140.789 100.01 141.089 101.119C139.028 100.571 137.671 98.7055 135.467 98.4577C136.067 99.6187 136.223 102.28 134.41 101.223C134.41 101.171 135.258 99.0186 134.058 98.3142C132.649 97.5054 128.031 100.375 127.079 99.8665C128.135 100.271 129.949 100.819 130.744 101.732C129.283 101.732 128.031 100.727 126.518 100.532C125.513 100.427 125.761 99.6317 124.457 100.232C123.205 100.832 124.209 101.784 123.857 101.993C122.657 102.697 120.191 102.997 117.882 104.197C116.982 104.654 114.817 104.602 114.921 106.154C116.226 106.506 116.93 106.154 118.13 106.154C119.03 106.154 118.078 109.063 117.935 109.22C117.53 109.572 115.626 109.467 115.026 109.624C113.421 110.028 110.603 109.872 109.051 110.824C103.82 113.837 113.421 114.085 116.239 114.085C115.691 116.446 109.912 114.685 109.912 116.042C109.912 116.694 112.43 117.399 112.925 117.555C112.521 117.555 112.469 117.555 112.325 117.855C113.134 118.455 114.582 119.76 115.743 119.316C115.639 119.16 115.195 118.716 115.443 118.559C117.152 117.503 124.535 118.312 126.596 119.616C129.505 121.521 131.775 125.395 132.075 128.956H132.779C129.87 134.187 136.901 129.856 138.91 134.631C137.006 134.683 135.245 133.326 133.484 134.083C133.94 135.387 132.375 137.5 135.036 137.552C137.345 137.605 138.102 135.948 135.388 135.544C139.21 135.087 138.297 136.6 139.354 139.261C137.645 139.209 136.288 139.509 136.341 141.166C132.518 140.657 136.536 145.692 136.797 146.488C136.693 146.292 137.906 145.979 138.154 146.436C138.31 146.84 136.901 147.336 137.306 147.688C136.706 147.14 138.01 149.854 137.854 149.449C137.802 149.345 139.315 148.549 139.615 148.601C138.415 151.015 139.615 155.085 142.224 157.041C143.385 157.889 149.111 160.107 150.011 159.598C151.264 158.894 150.911 156.285 151.472 155.071C151.772 154.367 150.664 154.171 151.12 153.31C151.316 152.854 152.477 153.154 152.829 152.502C154.381 149.632 153.429 146.919 157.303 146.619C157.199 144.753 157.408 146.071 158.36 145.458C158.164 150.284 166.343 140.135 166.395 140.083L166.369 140.122ZM82.9227 116.511C84.5272 119.029 91.9104 118.116 94.6237 117.672C95.3281 119.486 99.6981 118.377 99.5024 115.964C99.0981 116.159 98.6937 116.316 98.3023 116.511C98.1458 116.107 98.0545 115.755 97.898 115.351C99.659 115.05 99.5546 114.594 99.1502 113.042C101.316 113.642 103.168 113.342 101.668 111.333C101.42 110.981 103.977 111.228 103.977 110.928C103.977 108.815 100.063 109.467 99.0589 110.381L98.7589 109.624C101.277 107.863 103.99 110.276 106.351 108.163C105.894 107.811 105.451 107.511 104.994 107.158C106.547 107.615 108.06 107.967 109.821 107.263C109.064 106.663 109.169 106.206 108.164 105.802C111.777 106.65 116.056 102.736 119.422 101.836C118.313 100.727 115.456 101.784 113.591 101.588C115.104 99.6317 123.492 101.536 123.987 98.8229C124.339 97.0097 116.747 96.6575 114.895 97.1663C114.191 96.4619 111.282 95.6531 109.469 95.4574C108.764 98.0142 100.52 94.2965 101.133 97.2185C98.8763 96.3706 93.8019 95.914 92.0409 98.3794C93.9454 98.2751 96.0587 98.6795 97.0109 100.245C95.1064 99.7361 92.4844 98.4838 90.8277 98.1838C89.0667 97.8316 87.6188 98.7316 87.11 98.836C85.2968 99.0838 81.5791 100.036 79.3224 100.545C79.3224 100.741 79.3224 101.001 79.2702 101.249C81.1747 101.797 81.2791 102.906 83.3923 103.558C86.4056 104.458 86.51 102.854 89.1189 102.502C83.888 105.567 92.0279 104.51 93.4367 104.158C96.3456 103.454 98.3545 101.745 101.42 101.849C100.22 101.954 99.0068 102.502 98.0545 103.362C99.2155 103.167 100.116 103.519 101.224 103.519C99.672 104.68 94.7411 105.071 92.4844 105.176V105.984C93.9976 106.585 94.8455 107.693 96.6587 107.641C94.0498 108.346 90.1233 105.776 87.2144 105.437C87.4622 107.954 91.8844 109.963 94.402 109.807C93.8541 110.459 93.5932 111.007 93.0975 111.568C88.7276 107.25 82.1922 113.929 90.2799 112.468C89.8755 112.715 89.432 112.924 88.9754 113.172C89.9277 114.724 91.6887 114.229 92.941 112.872C91.48 116.838 87.11 113.068 84.3967 113.42C85.5055 115.129 84.4489 115.833 82.9357 116.538L82.9227 116.511ZM83.6271 111.541C84.0315 110.994 84.8272 111.346 84.5794 109.937C89.4581 110.694 88.3493 107.68 85.2838 105.763C85.4794 105.867 75.4351 100.793 75.6829 102.293C76.3873 102.449 77.0396 101.941 77.1961 102.841C77.1961 102.945 74.535 103.297 74.235 103.245C74.835 103.702 75.0437 104.302 75.2916 104.55C74.535 104.445 73.9349 104.706 73.2305 104.654C72.9827 105.163 72.7218 106.311 72.6826 107.015C74.548 108.88 77.2091 107.315 79.1658 108.919C78.0049 109.024 76.8047 109.624 75.696 109.767C77.9527 111.776 80.966 112.533 83.6402 111.528L83.6271 111.541ZM79.6094 114.15C79.4137 114.503 79.1528 114.855 78.9571 115.207C80.2616 115.611 81.2138 115.507 82.3748 114.959C81.6704 113.655 80.966 113.903 79.6094 114.15ZM80.8616 123.399C82.3748 123.099 99.2546 124.456 96.7892 120.581C95.276 118.22 88.5971 120.738 86.5882 120.686C82.2705 120.581 81.7095 116.159 77.9005 117.268C79.3093 119.734 77.7961 122.342 80.8616 123.399ZM70.2042 123.699H71.313C70.8042 122.538 70.8042 123.451 70.2042 123.699ZM72.5652 121.795C73.374 122.499 77.5353 124.403 77.0917 121.69C76.7395 119.486 73.3218 120.529 72.5652 121.795ZM76.3351 118.481C78.044 116.72 75.5786 115.468 73.7784 115.768C70.0607 116.316 74.6263 118.533 76.3351 118.481ZM73.2175 114.816C74.5741 114.816 75.9308 114.659 77.2352 114.307V113.55C75.5786 113.303 73.7132 113.146 73.2175 114.803V114.816ZM73.5175 112.911C77.3396 112.011 70.9608 110.25 69.7476 110.654C70.2955 112.468 71.5086 113.563 73.5175 112.911ZM69.2519 107.185C68.704 106.128 68.2996 105.58 66.8908 105.828V106.728C67.8953 107.185 68.2996 107.38 69.2519 107.185ZM68.2475 113.772C69.3563 109.95 61.8165 108.098 58.9466 109.206C60.0554 109.663 60.6033 110.511 61.4121 111.163H60.1598C61.2686 112.715 66.0821 112.924 68.2475 113.772ZM65.3385 113.929C64.3862 113.576 64.0862 113.029 62.8731 113.329C63.3296 114.633 64.0732 114.229 65.3385 113.929ZM64.6341 120.608C66.1864 119.799 67.1517 120.412 67.5039 122.212C69.5128 122.108 71.0651 121.403 70.8173 119.199C70.5172 116.838 68.104 117.842 65.9386 116.994C66.6952 117.503 67.4909 118.299 67.9474 119.16C67.8431 119.003 64.8819 117.855 64.3341 117.751C64.4906 118.403 64.4906 119.003 64.7384 119.655C63.3296 118.599 62.6774 116.785 60.6685 116.59C60.4729 118.899 62.573 120.06 64.6341 120.608ZM60.212 121.208C60.3685 121.312 61.8686 123.073 61.8686 121.26C61.8686 120.255 60.4076 121.208 60.212 121.208ZM60.7598 115.481C60.1598 114.581 59.5075 113.929 58.5553 113.472C58.6075 115.024 59.3641 115.885 60.7598 115.481ZM100.598 142.914C101.707 143.214 104.72 142.862 103.664 141.101C102.711 139.587 99.2937 140.748 100.598 142.914ZM75.8786 129.947C76.3351 129.139 77.0787 129.439 77.0396 128.239C79.1528 128.995 80.0529 127.078 81.1617 125.578C79.6094 124.977 76.283 123.869 74.8872 124.873C73.6349 125.773 73.1262 130.756 75.8916 129.947H75.8786ZM69.1475 132.361C72.6696 132.361 73.374 129.152 69.9955 127.639C72.5522 126.791 70.5433 125.225 69.0954 124.73C68.8475 124.677 66.7343 125.786 65.5342 125.578C67.6996 127.782 66.0429 129.243 63.6688 127.939C63.7731 129.452 67.7387 131.604 69.1475 132.361ZM60.6033 127.534C61.2034 125.421 58.5422 125.017 57.29 126.178C58.4901 127.286 59.351 128.043 60.6033 127.534ZM55.5289 125.773C56.4812 126.882 55.6855 125.93 55.5289 125.773V125.773ZM48.0935 111.855H53.5722C52.62 109.846 49.6067 110.394 48.0935 111.855ZM49.6458 115.22C51.1981 115.22 53.1157 115.024 51.8112 113.563C52.4113 113.263 52.6591 113.511 53.1157 112.755C51.3025 112.598 49.5545 112.702 48.0413 113.655C48.3413 114.711 48.8892 114.855 49.6458 115.207V115.22ZM46.9847 113.863C46.4759 112.859 46.3846 112.207 44.9236 112.455C45.2237 113.707 45.8759 113.616 46.9847 113.863ZM45.4324 117.686C43.267 118.286 41.1146 120.555 42.6147 121.755C43.9714 122.864 48.9414 121.755 50.6502 121.912C50.0502 122.564 46.4759 121.912 46.7368 123.164C47.0369 124.573 49.698 123.673 50.6111 123.516C52.4765 123.164 59.5076 122.264 58.9466 119.642C59.1423 120.647 54.381 117.033 54.7723 117.125C52.5678 116.472 51.7069 117.777 52.8678 119.786C53.2722 119.981 53.9766 119.681 54.1201 120.242C54.3158 121.051 46.5803 118.077 45.4324 117.686ZM45.8889 116.225C46.3977 116.42 46.5412 117.229 47.7543 116.981C47.7543 116.733 47.7021 116.472 47.65 116.225C47.1021 116.381 46.489 116.381 45.8889 116.225ZM39.8101 119.486C39.5623 119.786 39.2623 120.086 39.0014 120.386C40.7102 120.386 40.358 120.686 41.2581 119.133C40.7493 119.238 40.3058 119.381 39.7971 119.486H39.8101ZM42.2234 117.581C43.5279 117.125 44.1801 116.12 44.3888 114.672C39.771 113.563 38.2578 117.79 34.0444 118.286C36.0533 121.299 39.0144 118.533 40.7754 116.877C41.232 118.233 41.7799 117.281 42.2364 117.581H42.2234ZM43.28 137.526C46.5933 137.279 46.6977 138.987 49.2545 139.692C51.8112 140.396 53.7809 138.583 56.0899 138.14C57.4465 137.892 66.5386 139.392 63.3296 136.887C64.6341 136.887 65.0385 136.235 65.7951 135.883C62.9774 133.926 61.8295 133.926 60.4207 131.265C59.8728 130.208 57.5117 125.134 55.542 127.547C54.6419 128.708 57.9031 131.317 55.4898 131.161C54.2375 131.004 54.3288 127.743 52.0199 127.639C52.3199 128.095 52.5287 128.643 52.7765 129.152C51.8242 129.556 51.3677 129.7 50.3633 129.908C50.6111 129.504 50.7155 128.852 50.872 128.395C49.1631 127.743 47.5587 128.095 46.6064 128.695C47.363 125.825 44.6497 127.182 43.2409 127.795C40.7233 128.956 40.632 129.504 39.5232 131.461C41.1798 132.113 42.993 131.004 44.5453 132.217C43.2931 132.322 42.0799 132.765 41.1798 133.522C42.8887 134.422 48.3674 133.013 49.2675 134.578C49.6197 135.126 43.2409 135.426 42.2364 136.039C42.5886 136.548 42.993 137.044 43.2931 137.552L43.28 137.526ZM56.0899 140.54C57.4465 140.135 58.2944 139.887 58.6075 138.674C57.1987 138.922 55.7898 139.483 54.5375 140.227C55.0854 140.331 55.5942 140.422 56.0899 140.527V140.54ZM34.7358 132.256C37.449 132.661 38.5578 129.087 40.9189 127.886C44.6888 125.93 45.6411 125.33 40.7624 124.325C39.5101 124.077 33.1704 122.564 31.8659 123.673C31.1615 124.273 30.9137 128.8 29.3092 130.613C31.0702 130.717 32.7269 131.669 33.4313 133.378C33.8879 133.026 34.3314 132.622 34.7358 132.269V132.256ZM286.25 288.805C286.25 285.844 288.363 279.765 284.893 278.409C284.893 279.465 283.536 281.826 282.884 282.426C281.58 283.587 279.623 283.079 278.318 284.383C277.262 285.335 278.423 288.401 278.318 289.262C278.071 290.814 277.418 290.971 277.066 292.927C276.662 295.445 277.262 299.163 280.588 298.406C283.849 297.702 282.793 296.749 283.354 293.84C283.406 293.488 284.202 290.227 284.306 290.175C284.554 289.823 286.263 289.327 286.263 288.818L286.25 288.805ZM260.826 215.807C259.365 212.337 258.569 213.694 255.347 213.29C250.729 212.742 247.155 211.229 242.785 210.276C242.785 214.451 242.889 213.694 240.072 213.694C240.619 213.694 237.554 212.794 237.867 212.938H235.61C235.415 212.533 235.258 212.129 235.154 211.737C233.797 211.281 229.727 210.576 228.879 209.481C227.327 207.367 230.64 206.963 227.823 205.163C228.579 204.511 228.475 204.458 229.532 204.211C228.071 201.745 224.105 204.054 221.992 204.106C219.787 204.158 217.374 203.154 214.504 204.406C212.6 205.215 211.295 206.363 208.725 206.272C205.608 206.22 203.951 204.106 203.951 208.137H201.642C202.699 211.855 199.985 209.442 199.385 210.655C198.433 212.611 198.733 214.92 197.872 216.186C197.324 216.942 195.315 217.947 194.507 218.951C193.607 220.008 192.55 221.821 191.598 223.217C190.645 224.626 186.771 228.239 187.332 230.404C187.489 231.004 189.641 230.156 189.993 230.861C190.293 231.461 189.537 231.709 189.693 232.061C190.293 233.665 189.289 236.287 189.145 237.892C188.989 239.849 188.845 241.505 191.011 243.775C193.32 246.188 195.433 248.197 198.042 250.454C198.89 251.211 199.346 252.972 201.251 253.363C203.364 253.767 203.612 252.854 205.673 252.554C207.434 252.358 208.738 253.154 209.938 253.102C212.495 252.998 212.3 252.045 214.361 251.341C216.069 250.793 219.683 250.937 220.635 251.341C222.148 251.993 221.796 253.154 224.053 253.65C227.966 254.498 227.718 252.541 227.823 256.715C227.875 258.62 227.066 261.085 226.009 262.194C230.888 263.746 234.097 273.804 233.341 278.578C232.532 283.353 229.623 283.548 232.14 288.675C233.654 291.845 234.149 293.749 235.01 297.219C235.91 300.832 238.728 303.298 239.785 306.559C240.633 309.324 239.276 310.224 240.685 311.738C244.402 315.808 254.147 311.033 257.069 307.916C258.178 306.715 260.082 304.654 260.682 303.193C261.334 301.785 260.486 299.776 260.839 298.876C261.191 298.223 263.604 297.767 264.4 296.762C266.461 294.049 263.343 292.888 263.943 290.031C264.4 287.723 268.665 286.562 269.866 285.466C272.931 282.752 273.075 279.687 272.331 275.617C271.874 273.308 269.774 269.89 270.674 267.073C271.835 263.303 276.649 259.69 279.519 257.172C281.632 255.267 283.745 253.154 285.193 250.584C286.145 248.876 286.745 248.719 287.006 246.41C287.411 242.849 287.958 243.697 284.893 243.697C280.575 243.645 279.31 245.301 276.297 242.04C274.588 240.136 271.822 238.322 270.166 236.209C268.561 234.096 266.904 229.322 265.9 226.869C264.387 223.099 263.539 219.186 260.826 215.82C261.021 216.068 260.721 215.573 260.826 215.82V215.807ZM395.877 262.429C394.572 262.677 397.077 263.029 397.586 262.938C397.586 262.09 396.633 262.285 395.877 262.429ZM386.928 264.542C386.928 264.542 388.533 266.551 388.337 266.303C388.233 266.251 388.585 268.116 388.637 268.312C389.746 267.555 389.446 265.403 389.446 264.19H390.398C390.502 264.646 392.159 268.364 392.811 268.064C393.972 267.555 391.807 263.499 391.155 262.638C398.238 262.638 386.928 258.516 386.928 264.542ZM395.825 258.059C394.625 258.516 387.841 257.602 388.194 260.42C390.398 259.416 391.011 259.611 393.372 259.116C394.129 258.959 394.325 259.82 395.238 259.416C395.694 259.22 397.494 257.355 395.838 258.059C396.138 257.902 395.733 258.111 395.838 258.059H395.825ZM393.62 275.8C392.968 275.852 392.811 276.1 393.164 276.556H394.064C394.116 276.152 394.116 275.604 393.607 275.8C393.711 275.748 393.359 275.852 393.607 275.8H393.62ZM388.794 272.682C390.098 273.986 394.272 272.878 395.825 272.278C394.572 272.03 389.341 272.03 388.794 272.682ZM388.246 273.634C386.341 274.234 389.85 275.187 390.45 275.147C390.202 274.847 388.898 273.543 388.246 273.634C387.998 273.739 388.35 273.634 388.246 273.634ZM384.424 272.33C383.315 272.434 387.189 272.682 387.946 272.682C387.698 272.734 387.698 272.578 387.789 272.278C386.537 272.278 385.624 272.121 384.424 272.33C384.228 272.382 384.672 272.33 384.424 272.33ZM367.844 269.773C369.605 271.13 372.07 271.534 375.032 271.834C377.393 272.134 380.354 273.347 382.924 272.995C382.167 271.534 380.719 271.182 379.101 271.482C379.206 270.425 379.949 270.934 380.758 270.477C376.388 269.721 372.37 269.63 367.844 269.773ZM363.174 267.569C363.07 268.625 362.874 268.273 363.174 267.569V267.569ZM374.027 257.172C372.018 258.581 373.271 261.138 374.431 262.651C376.088 264.907 376.793 264.66 379.91 265.168C383.119 265.716 382.115 266.577 383.928 263.916C383.98 263.759 384.332 261.659 384.685 261.046C385.141 260.29 386.889 259.937 387.398 258.789C385.389 257.485 385.937 257.133 385.493 254.224C387.046 254.328 386.602 253.272 388.102 252.711C388.259 253.115 384.437 250.102 384.737 250.05C383.537 250.154 382.676 252.215 381.723 253.011C379.61 254.915 375.945 258.594 374.04 257.185L374.027 257.172ZM357.904 261.698C358.008 262.703 359.665 265.168 360.669 265.416C360.474 264.007 357.904 261.803 357.904 261.698C357.956 261.894 357.904 261.542 357.904 261.698ZM355.438 258.281C355.843 259.037 356.599 259.233 356.899 259.99C356.899 259.089 356.652 258.385 355.699 257.981C355.399 258.737 355.699 258.385 355.451 258.281H355.438ZM354.33 256.324C354.33 256.076 353.821 255.424 353.821 256.128C353.821 256.728 354.225 257.028 354.773 257.081C354.93 256.728 354.773 256.481 354.317 256.324H354.33ZM354.838 252.802C353.99 252.802 353.534 251.954 352.725 252.045C353.077 253.806 355.895 255.567 356.847 256.768C358.308 258.633 359.561 261.333 361.113 263.355C362.169 264.712 364.726 268.429 366.135 268.482C369.344 268.586 367.544 265.468 370.048 264.712C369.748 262.703 367.935 261.998 366.383 263.107C366.187 260.851 357.839 253.154 354.825 252.802C355.178 252.854 354.721 252.802 354.825 252.802H354.838ZM394.377 247.48C392.72 247.675 391.259 248.784 392.172 250.65C393.477 247.441 395.433 251.106 397.599 252.058C396.842 250.454 398.199 250.102 398.199 250.05C398.251 249.75 398.903 245.823 397.547 245.823C396.19 245.823 395.89 248.536 394.377 247.48C394.129 247.532 394.481 247.584 394.377 247.48ZM389.85 240.397C389.798 240.944 391.559 245.314 392.864 245.066C392.211 246.475 394.468 247.48 393.92 244.662C393.672 243.501 391.155 240.592 389.85 240.397C389.85 240.592 389.955 240.449 389.85 240.397ZM392.055 240.201C393.959 241.505 395.264 244.075 397.325 244.519C397.325 242.158 395.12 241.61 395.12 239.549C393.92 239.549 393.255 240.201 392.055 240.201C392.303 240.357 392.303 240.201 392.055 240.201ZM389.146 241.557C388.037 243.762 385.128 245.98 384.528 247.793C387.046 247.793 389.146 244.075 389.146 241.557C389.146 241.662 389.146 241.805 389.146 241.557ZM390.346 232.609C388.089 233.809 388.637 238.44 391.246 239.236C391.089 237.775 394.364 232.609 390.346 232.609ZM330.758 245.967C329.858 247.075 330.458 253.154 332.767 251.041C334.019 249.88 331.162 246.423 330.758 245.967ZM391.846 222.956C391.846 222.199 388.781 224.665 389.237 227.482H390.137C390.137 225.617 391.846 224.665 391.846 222.956ZM370.896 112.872C370.44 112.063 369.135 111.868 368.287 112.272C368.535 112.52 371.249 113.785 370.896 112.872C370.792 112.715 370.949 112.976 370.896 112.872ZM353.064 116.433C353.612 116.277 354.173 116.433 354.669 116.433C354.473 114.529 353.664 116.029 353.064 116.433ZM359.691 113.668C360.043 113.668 367.283 112.155 367.426 111.959C369.24 109.598 363.865 109.846 363.461 109.65C363.813 109.246 363.97 109.246 364.061 108.802C360.891 108.254 359.391 113.681 359.691 113.681V113.668ZM354.812 106.128C349.49 106.885 350.247 109.898 355.164 110.354C358.882 110.707 359.13 110.811 358.934 108.593C358.687 105.528 358.934 107.041 356.117 107.041C356.417 106.532 356.417 106.637 356.521 106.141H354.812V106.128ZM350.247 106.428C352.36 107.537 355.373 104.615 356.573 103.819C353.808 102.515 349.986 102.358 347.781 105.28C347.938 105.528 349.686 106.18 350.247 106.441C350.142 106.389 350.351 106.493 350.247 106.441V106.428ZM349.647 107.132C348.642 107.132 347.886 106.532 346.829 106.728C346.986 109.846 351.055 107.132 349.647 107.132ZM346.477 102.162C344.168 102.162 345.968 103.115 345.825 103.362C345.368 104.119 348.786 102.162 346.477 102.162ZM286.837 137.983C285.48 137.787 283.275 136.222 284.28 139.392C285.128 139.392 286.693 138.935 286.837 137.983C286.732 137.983 286.784 138.087 286.837 137.983ZM292.72 126.934C291.363 126.778 288.598 130.352 288.598 132.204C289.354 132.048 289.902 131.552 290.359 132.504C290.659 132.348 290.763 132.152 290.659 131.904C292.42 132.752 291.207 133.77 292.172 134.161C293.372 134.709 295.733 134.513 297.09 134.513C296.933 132.648 294.885 132.048 294.729 130.339C294.572 128.226 296.333 126.973 297.638 125.669C300.703 122.656 303.521 120.947 308.034 119.89C309.339 119.538 314.87 118.377 314.27 116.981C313.422 114.868 310.252 117.229 309.091 117.581C306.325 118.481 297.077 118.69 297.077 122.108C296.529 122.003 295.968 122.003 295.42 122.108C296.829 124.521 291.807 124.469 292.25 126.073C292.759 125.969 292.902 125.773 293.502 125.878C293.202 126.582 293.959 127.039 292.694 126.934C292.942 126.934 292.498 126.882 292.694 126.934H292.72ZM315.731 127.639C316.931 127.639 317.596 126.882 317.935 126.686C318.587 126.334 313.813 127.639 315.731 127.639ZM304.825 103.376C306.534 105.984 307.695 103.532 309.652 103.18C307.839 102.123 306.482 103.936 304.825 103.376ZM301.055 103.376C301.055 104.276 300.455 104.028 299.999 104.732C301.303 105.189 302.764 105.241 304.264 104.928C303.012 103.323 303.103 102.162 301.055 103.376ZM300.547 106.141C300.09 106.245 299.738 106.337 299.294 106.337C299.49 107.393 300.194 106.845 301.055 106.637C301.003 106.232 301.055 105.984 300.547 106.128C300.651 106.128 300.39 106.18 300.547 106.128V106.141ZM295.172 105.684C295.877 106.284 295.981 107.237 297.077 105.841C297.077 107.55 299.281 105.945 299.594 105.684C299.647 105.489 299.594 105.28 299.49 105.084C298.133 104.784 296.02 105.384 295.172 105.684ZM290.802 105.841C292.054 104.536 294.768 103.976 296.685 104.432C296.229 101.667 299.203 105.384 299.594 102.88C298.942 102.88 298.342 102.984 297.69 102.88C297.938 102.475 298.446 101.575 298.59 101.419C297.585 101.419 296.881 102.071 296.333 102.228C296.685 102.123 294.468 102.736 294.272 102.88C293.672 103.18 293.516 103.989 292.72 104.536C291.663 105.293 291.167 104.693 290.815 105.841H290.802ZM284.723 103.78C282.467 103.78 281.854 104.589 279.753 104.132C279.858 105.789 282.662 104.68 283.98 104.68C281.267 106.585 285.793 107.093 287.098 105.384C289.211 102.515 287.202 103.78 284.736 103.78H284.723ZM240.919 106.337C241.376 107.641 244.181 105.932 244.689 107.341C243.933 107.289 243.176 107.393 242.433 107.341C243.789 111.215 251.42 107.798 253.181 106.741C251.473 104.837 249.059 106.441 247.559 105.984C247.807 105.384 248.211 105.476 248.107 104.823C246.294 105.528 246.75 104.928 245.694 106.728C245.042 104.967 240.111 104.563 240.919 106.324C240.815 106.167 240.972 106.48 240.919 106.324V106.337ZM237.802 112.168C237.802 112.572 233.732 112.324 233.236 114.033C234.241 113.785 237.358 113.081 237.763 113.629C237.11 114.033 233.797 114.581 233.745 114.829C233.641 115.377 236.654 116.838 237.306 117.699C239.263 116.185 241.18 113.276 241.18 111.215C241.728 111.111 242.785 111.111 243.346 111.215C243.098 113.081 243.541 111.763 244.35 112.82C244.95 113.629 243.75 114.281 243.75 115.077C245.863 113.772 246.059 115.533 246.868 115.377C247.716 115.22 249.229 114.372 250.077 114.177C249.177 112.924 248.211 114.333 248.211 112.572C247.311 112.676 241.233 109.05 241.024 108.502C240.776 108.606 240.319 108.75 239.824 108.502C240.019 108.046 240.28 107.745 240.372 107.302C238.063 106.193 238.011 107.458 236.902 107.759C237.45 107.602 236.093 109.063 235.949 109.115C236.302 108.959 235.402 107.25 235.245 107.25C235.441 107.302 232.688 108.306 232.727 108.254C233.027 107.798 233.132 107.302 233.38 106.898C232.023 107.198 226.349 108.554 230.862 109.206C230.862 109.754 230.966 111.215 230.758 111.724C229.949 111.32 230.053 110.563 228.997 110.315C229.401 111.163 231.058 113.837 231.058 111.424C232.01 111.528 232.114 112.937 233.471 112.481C233.98 112.324 234.28 111.32 234.828 111.281C234.88 111.281 237.645 111.033 237.789 112.181C237.789 111.933 237.789 112.233 237.789 112.181L237.802 112.168ZM204.094 163.068C203.39 163.368 202.633 164.177 202.49 164.881C203.142 164.685 205.255 162.872 204.094 163.068C203.847 163.172 204.199 163.068 204.094 163.068ZM205.699 180.248C207.251 180.248 208.412 179.139 209.312 178.995C210.669 178.8 212.573 179.452 213.682 178.943C215.587 178.043 216.239 176.178 215.691 174.417C215.391 173.308 214.53 175.069 214.491 175.017C213.982 174.508 214.087 173.608 213.682 173.256C212.978 172.656 212.026 171.247 211.126 170.19C209.769 168.586 209.573 168.99 209.364 167.673C209.26 166.825 212.782 163.446 207.551 165.011C207.956 164.255 208.06 163.655 208.856 163.146C207.147 161.437 206.39 164.098 205.738 164.607C205.634 164.711 202.125 165.912 204.89 166.368C204.642 167.177 203.729 168.325 203.781 168.834C204.681 168.938 205.842 169.642 206.09 168.677C205.842 171.638 207.447 169.981 208.556 172.395C209.808 175.212 207.199 173.295 205.842 174.952C206.39 175.056 206.795 175.004 207.395 175.108C207.395 175.917 205.334 176.269 205.986 177.065C206.442 177.573 208.595 176.817 209.299 177.521C208.999 177.769 204.773 180.235 205.686 180.235L205.699 180.248ZM204.394 172.356C207.812 171.847 199.02 167.477 201.081 171.547C199.424 171.847 197.259 174.104 199.92 174.012C196.45 178.982 201.277 175.669 204.186 176.321C204.29 175.121 204.434 173.804 204.381 172.356H204.394ZM105.32 332.922C104.72 332.766 104.772 331.813 104.316 331.813C104.512 331.813 102.959 333.627 102.959 333.627C102.959 333.874 105.777 336.092 106.025 336.183C105.868 336.379 105.829 336.588 105.868 336.836C100.95 336.836 104.864 341.101 104.107 342.914C104.512 342.862 104.864 342.862 105.307 342.914C105.307 343.371 105.112 343.567 104.603 343.619C105.412 344.467 105.007 343.971 105.764 344.167C105.516 344.062 109.025 348.537 109.586 348.889C112.495 350.702 115.313 349.789 118.078 349.593C117.974 348.693 114.465 347.689 113.708 345.928C113.056 344.271 111.451 339.953 114.256 340.201C114.256 338.44 117.817 336.483 117.517 335.179C117.269 333.666 113.695 334.579 114.96 331.618C115.313 330.665 117.269 331.161 117.674 330.665C118.078 330.209 117.569 329.413 118.078 328.852C117.726 329.257 119.891 325.487 119.63 326.896C120.087 324.43 117.765 326.948 118.274 323.334C121.887 324.743 122.591 323.439 122.044 320.125C125.005 320.23 128.579 320.321 129.936 317.412C131.449 314.399 128.631 315.051 128.07 312.39C131.384 312.846 132.636 313.994 135.206 311.738C136.406 310.629 137.371 306.311 138.728 306.507C138.532 307.107 138.428 307.159 138.571 307.707C142.485 305.75 141.389 300.219 143.541 297.663C144.95 295.954 146.855 295.145 148.863 294.597C151.981 293.697 152.829 293.893 154.59 290.827C156.703 287.214 155.842 281.683 157.499 278.774C158.751 276.608 161.412 275.356 162.117 272.891C162.625 271.286 162.521 271.378 162.117 269.877C161.217 266.616 161.269 268.769 159.208 267.164C157.003 265.403 156.09 265.051 153.325 264.503C151.864 264.203 146.594 264.607 148.798 263.446C147.989 262.899 146.633 262.09 145.589 261.842C142.928 261.333 143.528 261.946 141.624 262.742C141.78 262.494 142.576 260.733 142.628 260.577C141.871 260.472 140.919 260.12 140.215 259.924C139.51 259.729 139.915 261.477 138.454 261.281C138.754 260.629 141.571 257.159 138.91 257.159C139.367 252.489 135.088 252.241 132.231 251.537C129.923 250.989 124.744 248.628 124.744 246.006C123.439 246.462 121.13 245.849 123.139 244.949C121.783 243.188 118.965 245.653 118.169 245.601C115.26 245.497 113.852 243.045 111.086 242.536C111.086 244.049 110.029 243.697 109.182 244.597C109.025 244.753 109.429 246.801 109.338 247.154C107.734 245.849 108.138 243.084 109.795 242.079C107.186 241.375 99.946 246.149 99.5416 249.41C99.2937 251.224 101.198 253.128 99.946 255.594C99.2937 257.002 96.4761 259.82 94.976 260.316C95.276 262.677 94.2715 263.081 96.6848 263.277C95.6804 264.986 93.3715 265.99 94.6759 268.808C95.0281 269.564 96.5413 269.708 97.1414 270.569C97.7414 271.469 98.3937 272.773 98.798 273.739C99.6068 275.8 100.403 279.217 101.707 280.77C103.572 282.883 105.725 283.483 108.034 285.244C111.856 288.309 110.447 294.74 109.847 299.463C109.495 302.072 108.542 304.537 108.242 306.95C107.89 309.768 108.242 312.729 107.081 315.39C105.829 318.351 105.881 320.112 105.125 323.426C105.125 323.23 105.073 325.63 105.125 325.03C105.073 325.539 104.068 326.035 104.277 326.687C105.386 329.896 106.286 325.135 107.394 325.03C106.586 327.235 106.286 329.152 105.986 331.709C105.386 330.652 105.229 331.252 105.033 329.844C104.329 330.196 105.386 332.309 105.333 332.909L105.32 332.922ZM55.5289 125.773C56.4812 126.882 55.6855 125.93 55.5289 125.773V125.773Z" fill="#5163A2"/>
<path fill-rule="evenodd" clip-rule="evenodd" d="M177.627 312.299C179.988 312.299 181.344 311.294 182.701 309.533C184.058 311.294 185.414 312.299 187.775 312.299C190.437 312.299 192.654 310.642 193.359 308.385C193.515 308.894 193.606 309.39 193.606 309.938C193.606 312.899 190.489 315.364 187.775 315.364C185.062 315.364 183.705 314.764 182.701 313.16C181.697 314.764 179.792 315.364 177.627 315.364C175.461 315.364 173.713 314.712 172.709 313.107C171.704 314.712 170.296 315.364 167.634 315.364C164.973 315.364 161.856 312.899 161.856 309.938C161.856 309.39 161.908 308.881 162.051 308.385C162.756 310.642 165.013 312.299 167.634 312.299C169.996 312.299 171.3 311.346 172.657 309.638C174.013 311.346 175.318 312.299 177.627 312.299Z" fill="#5163A2"/>
<path fill-rule="evenodd" clip-rule="evenodd" d="M151.903 230.404C154.264 230.404 155.673 229.4 156.977 227.639C158.334 229.4 159.69 230.404 162.052 230.404C164.713 230.404 166.93 228.748 167.635 226.491C167.791 227 167.883 227.495 167.883 228.043C167.883 231.004 164.765 233.47 162.052 233.47C159.338 233.47 157.982 232.87 156.977 231.265C156.025 232.87 154.068 233.47 151.903 233.47C149.737 233.47 147.989 232.818 146.985 231.213C145.981 232.818 144.572 233.47 141.911 233.47C139.249 233.47 136.132 231.004 136.132 228.043C136.132 227.495 136.184 226.987 136.327 226.491C137.084 228.748 139.289 230.404 141.911 230.404C144.272 230.404 145.576 229.452 146.933 227.743C148.289 229.452 149.594 230.404 151.903 230.404Z" fill="#5163A2"/>
<path fill-rule="evenodd" clip-rule="evenodd" d="M61.4643 260.446C63.7732 260.446 65.182 259.442 66.4865 257.681C67.8431 259.442 69.1997 260.446 71.5608 260.446C74.2219 260.446 76.4395 258.789 77.1439 256.533C77.3005 257.042 77.3918 257.537 77.3918 258.085C77.3918 261.046 74.2741 263.512 71.5608 263.512C68.8475 263.512 67.4909 262.912 66.4865 261.255C65.5342 262.912 63.5775 263.512 61.4643 263.512C59.351 263.512 57.4987 262.859 56.4943 261.255C55.4898 262.859 54.1332 263.512 51.4199 263.512C48.7066 263.512 45.6411 261.046 45.6411 258.085C45.6411 257.537 45.7455 257.028 45.889 256.533C46.5934 258.789 48.7979 260.446 51.4199 260.446C53.781 260.446 55.0854 259.442 56.4421 257.785C57.7987 259.442 59.1032 260.446 61.4643 260.446Z" fill="#5163A2"/>
<path fill-rule="evenodd" clip-rule="evenodd" d="M209.078 64.7634C211.386 64.7634 212.795 63.7589 214.1 61.9979C215.456 63.7589 216.813 64.7634 219.174 64.7634C221.835 64.7634 224.053 63.1067 224.757 60.8891C224.914 61.3457 225.005 61.8935 225.005 62.4023C225.005 65.4156 221.887 67.8289 219.174 67.8289C216.461 67.8289 215.104 67.281 214.1 65.6243C213.147 67.281 211.191 67.8289 209.078 67.8289C206.964 67.8289 205.112 67.1766 204.108 65.5721C203.103 67.1766 201.746 67.8289 199.033 67.8289C196.32 67.8289 193.254 65.4156 193.254 62.4023C193.254 61.8935 193.307 61.3457 193.502 60.8891C194.207 63.0936 196.411 64.7634 199.033 64.7634C201.394 64.7634 202.699 63.8111 204.055 62.1023C205.412 63.8111 206.716 64.7634 209.078 64.7634Z" fill="#5163A2"/>
<path fill-rule="evenodd" clip-rule="evenodd" d="M142.602 50.5969C144.963 50.5969 146.32 49.5925 147.676 47.8315C149.033 49.5925 150.39 50.5969 152.751 50.5969C155.36 50.5969 157.629 48.9924 158.334 46.7227C158.49 47.1792 158.582 47.7271 158.582 48.2358C158.582 51.2492 155.464 53.6624 152.751 53.6624C150.037 53.6624 148.681 53.1145 147.676 51.4579C146.672 53.1145 144.767 53.6624 142.602 53.6624C140.437 53.6624 138.689 53.0102 137.684 51.4579C136.628 53.0102 135.271 53.6624 132.61 53.6624C129.949 53.6624 126.831 51.2492 126.831 48.2358C126.831 47.7271 126.883 47.1792 127.027 46.7227C127.731 48.9794 129.988 50.5969 132.61 50.5969C134.971 50.5969 136.275 49.6447 137.632 47.9358C138.989 49.6447 140.293 50.5969 142.602 50.5969Z" fill="#5163A2"/>
<path fill-rule="evenodd" clip-rule="evenodd" d="M92.9668 74.1033C95.3279 74.1033 96.6845 73.0989 98.0412 71.3379C99.3978 73.0989 100.754 74.1033 103.116 74.1033C105.724 74.1033 107.942 72.4988 108.699 70.2291C108.855 70.7378 108.894 71.2335 108.894 71.7814C108.894 74.7425 105.777 77.1558 103.116 77.1558C100.454 77.1558 99.0456 76.6079 98.0412 74.9512C97.0367 76.6079 95.1322 77.3645 92.9668 77.1558C88.649 76.8036 87.8403 74.4425 87.7881 70.6726C89.1447 72.3814 90.6579 74.0903 92.9668 74.0903V74.1033Z" fill="#5163A2"/>
<path fill-rule="evenodd" clip-rule="evenodd" d="M163.76 182.27C166.069 182.27 167.478 181.265 168.782 179.504C170.139 181.265 171.496 182.27 173.857 182.27C176.518 182.27 178.736 180.613 179.44 178.395C179.596 178.852 179.688 179.348 179.688 179.908C179.688 182.87 176.57 185.335 173.857 185.335C171.144 185.335 169.787 184.735 168.782 183.131C167.83 184.735 165.873 185.492 163.76 185.335C159.442 184.931 158.634 182.57 158.582 178.8C159.938 180.509 161.399 182.27 163.76 182.27Z" fill="#5163A2"/>
<path fill-rule="evenodd" clip-rule="evenodd" d="M239.628 336.914C241.989 336.914 243.346 335.962 244.65 334.148C246.007 335.962 247.364 336.914 249.725 336.914C252.386 336.914 254.603 335.309 255.308 333.04C255.464 333.548 255.556 334.044 255.556 334.592C255.556 337.553 252.438 339.966 249.725 339.966C247.011 339.966 245.655 339.418 244.65 337.762C243.698 339.418 241.741 340.175 239.628 339.966C235.31 339.614 234.502 337.253 234.449 333.483C235.806 335.192 237.267 336.901 239.628 336.901V336.914Z" fill="#5163A2"/>
</svg>
