<?xml version="1.0" encoding="iso-8859-1"?>
<!-- Generator: Adobe Illustrator 19.0.0, SVG Export Plug-In . SVG Version: 6.00 Build 0)  -->
<svg version="1.1" id="Layer_1" xmlns="http://www.w3.org/2000/svg" xmlns:xlink="http://www.w3.org/1999/xlink" x="0px" y="0px"
	 viewBox="0 0 512 512" style="enable-background:new 0 0 512 512;" xml:space="preserve" fill="#FFFFFF">
<g transform="translate(1 1)">
	<g>
		<path d="M463.271,320.085c-9.414,0-18.039,2.875-25.083,7.799l-79.247-47.548c0.126-1.198,0.194-2.412,0.194-3.641
			c0-16.098-11.106-29.727-26.034-33.606v-80.047c20.015-3.925,34.712-21.232,34.712-42.55c0-6.328-1.305-12.297-3.649-17.673
			l46.208-39.582c5.298,3.283,11.53,5.187,18.187,5.187c19.092,0,34.712-15.62,34.712-34.712C463.271,14.62,447.651-1,428.559-1
			s-34.712,15.62-34.712,34.712c0,6.162,1.635,11.957,4.48,16.987l-44.24,37.897c-7.71-7.159-18.093-11.494-29.664-11.494
			c-13.64,0-25.637,6.017-33.54,15.593l-49.027-42.022c2.837-5.024,4.465-10.81,4.465-16.961C246.322,14.62,230.702-1,211.61-1
			s-34.712,15.62-34.712,34.712c0,19.092,15.62,34.712,34.712,34.712c6.668,0,12.91-1.911,18.214-5.204l52.841,45.29
			c-1.056,3.795-1.631,7.809-1.631,11.982c0,21.318,14.697,38.625,34.712,42.55v80.047c-7.812,2.03-14.574,6.732-19.249,13.059
			l-76.713-20.919c-3.162-20.99-20.89-36.636-42.886-36.636c-8.828,0-16.962,2.53-23.749,6.904l-70.274-78.078
			c4.587-6.892,7.243-15.225,7.243-24.283c0-24.298-19.092-43.39-43.39-43.39s-43.39,19.091-43.39,43.39
			c0,24.298,19.092,43.39,43.39,43.39c8.836,0,16.977-2.534,23.768-6.916l70.267,78.071c-4.595,6.895-7.255,15.235-7.255,24.302
			c0,1.103,0.053,2.191,0.13,3.272l-63.607,31.803c-6.172-5.61-14.356-9.041-23.303-9.041c-19.092,0-34.712,15.62-34.712,34.712
			s15.62,34.712,34.712,34.712s34.712-15.62,34.712-34.712c0-3.863-0.649-7.579-1.828-11.057l58.792-29.396
			c5.916,11.396,16.724,19.691,29.815,22.258v71.369c-14.928,3.879-26.034,17.508-26.034,33.606c0,4.071,0.716,7.981,2.018,11.618
			l-53.223,45.657c-5.305-3.296-11.548-5.207-18.219-5.207c-19.091,0-34.712,15.62-34.712,34.712
			c0,19.091,15.62,34.712,34.712,34.712c19.092,0,34.712-15.62,34.712-34.712c0-6.149-1.628-11.934-4.463-16.957l51.024-43.77
			c6.119,5.38,14.124,8.66,22.863,8.66c8.739,0,16.744-3.279,22.863-8.659l51.038,43.745c-2.844,5.029-4.477,10.822-4.477,16.982
			c0,19.091,15.62,34.712,34.712,34.712c19.091,0,34.712-15.62,34.712-34.712c0-19.092-15.62-34.712-34.712-34.712
			c-6.66,0-12.894,1.905-18.193,5.191l-53.249-45.64c1.303-3.637,2.018-7.548,2.018-11.619c0-16.098-11.106-29.727-26.034-33.606
			v-71.369c16.434-3.223,29.282-15.467,33.353-31.547l71.064,19.379c-0.179,1.42-0.282,2.863-0.282,4.33
			c0,19.092,15.62,34.712,34.712,34.712c11.608,0,21.925-5.781,28.236-14.599l73.41,44.046c-3.938,6.552-6.189,14.28-6.189,22.621
			c0,24.298,19.092,43.39,43.39,43.39c24.298,0,43.39-19.091,43.39-43.39C506.661,339.176,487.57,320.085,463.271,320.085z
			 M194.254,33.712c0-9.546,7.81-17.356,17.356-17.356s17.356,7.81,17.356,17.356s-7.81,17.356-17.356,17.356
			S194.254,43.258,194.254,33.712z M46.729,320.085c-9.546,0-17.356-7.81-17.356-17.356c0-9.546,7.81-17.356,17.356-17.356
			s17.356,7.81,17.356,17.356C64.085,312.275,56.275,320.085,46.729,320.085z M46.729,129.169
			c-14.753,0-26.034-11.281-26.034-26.034c0-14.753,11.281-26.034,26.034-26.034s26.034,11.281,26.034,26.034
			C72.763,117.888,61.481,129.169,46.729,129.169z M72.763,493.644c-9.546,0-17.356-7.81-17.356-17.356
			c0-9.546,7.81-17.356,17.356-17.356c9.546,0,17.356,7.81,17.356,17.356C90.119,485.834,82.308,493.644,72.763,493.644z
			 M298.39,476.288c0,9.546-7.81,17.356-17.356,17.356c-9.546,0-17.356-7.81-17.356-17.356c0-9.546,7.81-17.356,17.356-17.356
			C290.58,458.932,298.39,466.742,298.39,476.288z M194.254,389.508c0,9.546-7.81,17.356-17.356,17.356s-17.356-7.81-17.356-17.356
			c0-9.546,7.81-17.356,17.356-17.356S194.254,379.963,194.254,389.508z M176.898,268.017c-14.753,0-26.034-11.281-26.034-26.034
			c0-14.753,11.281-26.034,26.034-26.034s26.034,11.281,26.034,26.034C202.932,256.736,191.651,268.017,176.898,268.017z
			 M428.559,16.356c9.546,0,17.356,7.81,17.356,17.356s-7.81,17.356-17.356,17.356s-17.356-7.81-17.356-17.356
			S419.014,16.356,428.559,16.356z M298.39,120.492c0-14.753,11.281-26.034,26.034-26.034c14.753,0,26.034,11.281,26.034,26.034
			c0,14.753-11.281,26.034-26.034,26.034C309.671,146.525,298.39,135.244,298.39,120.492z M324.424,294.051
			c-9.546,0-17.356-7.81-17.356-17.356c0-9.546,7.81-17.356,17.356-17.356c9.546,0,17.356,7.81,17.356,17.356
			C341.78,286.241,333.969,294.051,324.424,294.051z M463.271,389.508c-14.753,0-26.034-11.281-26.034-26.034
			c0-14.753,11.281-26.034,26.034-26.034s26.034,11.281,26.034,26.034C489.305,378.227,478.024,389.508,463.271,389.508z"/>
	</g>
</g>
<g>
</g>
<g>
</g>
<g>
</g>
<g>
</g>
<g>
</g>
<g>
</g>
<g>
</g>
<g>
</g>
<g>
</g>
<g>
</g>
<g>
</g>
<g>
</g>
<g>
</g>
<g>
</g>
<g>
</g>
</svg>
