<?xml version="1.0" encoding="iso-8859-1"?>
<!-- Generator: Adobe Illustrator 19.0.0, SVG Export Plug-In . SVG Version: 6.00 Build 0)  -->
<svg version="1.1" id="Layer_1" xmlns="http://www.w3.org/2000/svg" xmlns:xlink="http://www.w3.org/1999/xlink" x="0px" y="0px"
	 viewBox="0 0 496 496" style="enable-background:new 0 0 496 496;" xml:space="preserve" fill="#FFFFFF">
<g>
	<g>
		<g>
			<path d="M392,48h-64V0H168v48h-64c-13.232,0-24,10.768-24,24v400c0,13.232,10.768,24,24,24h288c13.232,0,24-10.768,24-24V72
				C416,58.768,405.232,48,392,48z M184,16h128v32H184V16z M400,472c0,4.408-3.584,8-8,8H104c-4.416,0-8-3.592-8-8V128h304V472z
				 M400,112H96V72c0-4.408,3.584-8,8-8h288c4.416,0,8,3.592,8,8V112z"/>
			<path d="M352,424h-96v-80h24c57.344,0,104-46.656,104-104v-8h-40c-37.064,0-69.576,19.552-88,48.832V272
				c0-57.344-46.656-104-104-104h-40v8c0,57.344,46.656,104,104,104h24v56v88H112v16h240V424z M344,248h23.64
				c-4.056,44.792-41.808,80-87.64,80h-23.64C260.416,283.208,298.168,248,344,248z M216,264c-45.832,0-83.584-35.208-87.64-80H152
				c45.832,0,83.584,35.208,87.64,80H216z"/>
			<rect x="368" y="424" width="16" height="16"/>
			<rect x="272" y="392" width="16" height="16"/>
			<rect x="304" y="392" width="16" height="16"/>
			<rect x="336" y="392" width="16" height="16"/>
			<rect x="208" y="392" width="16" height="16"/>
			<rect x="176" y="392" width="16" height="16"/>
			<rect x="144" y="392" width="16" height="16"/>
		</g>
	</g>
</g>
<g>
</g>
<g>
</g>
<g>
</g>
<g>
</g>
<g>
</g>
<g>
</g>
<g>
</g>
<g>
</g>
<g>
</g>
<g>
</g>
<g>
</g>
<g>
</g>
<g>
</g>
<g>
</g>
<g>
</g>
</svg>
